<mxfile host="app.diagrams.net" modified="2022-06-13T07:36:34.484Z" agent="5.0 (Windows NT 10.0; Win64; x64) AppleWebKit/537.36 (KHTML, like Gecko) Chrome/102.0.5005.63 Safari/537.36 Edg/102.0.1245.39" etag="U_gF1p83zpaM1fUsCCjf" version="19.0.3" type="github">
  <diagram id="ZGKUrq4hD0NuAZbzeU3i" name="Page-1">
    <mxGraphModel dx="1422" dy="794" grid="1" gridSize="10" guides="1" tooltips="1" connect="1" arrows="1" fold="1" page="1" pageScale="1" pageWidth="827" pageHeight="1169" math="0" shadow="0">
      <root>
        <mxCell id="0" />
        <mxCell id="1" parent="0" />
        <mxCell id="8ifyzaVZ6uN9mZMzue3X-3" value="" style="edgeStyle=orthogonalEdgeStyle;rounded=0;orthogonalLoop=1;jettySize=auto;html=1;" edge="1" parent="1" source="8ifyzaVZ6uN9mZMzue3X-1" target="8ifyzaVZ6uN9mZMzue3X-2">
          <mxGeometry relative="1" as="geometry" />
        </mxCell>
        <mxCell id="8ifyzaVZ6uN9mZMzue3X-1" value="对象池" style="rounded=0;whiteSpace=wrap;html=1;" vertex="1" parent="1">
          <mxGeometry x="290" y="200" width="120" height="60" as="geometry" />
        </mxCell>
        <mxCell id="8ifyzaVZ6uN9mZMzue3X-5" value="" style="edgeStyle=orthogonalEdgeStyle;rounded=0;orthogonalLoop=1;jettySize=auto;html=1;" edge="1" parent="1" source="8ifyzaVZ6uN9mZMzue3X-2" target="8ifyzaVZ6uN9mZMzue3X-4">
          <mxGeometry relative="1" as="geometry" />
        </mxCell>
        <mxCell id="8ifyzaVZ6uN9mZMzue3X-7" value="" style="edgeStyle=orthogonalEdgeStyle;rounded=0;orthogonalLoop=1;jettySize=auto;html=1;" edge="1" parent="1" source="8ifyzaVZ6uN9mZMzue3X-2" target="8ifyzaVZ6uN9mZMzue3X-6">
          <mxGeometry relative="1" as="geometry" />
        </mxCell>
        <mxCell id="8ifyzaVZ6uN9mZMzue3X-9" value="" style="edgeStyle=orthogonalEdgeStyle;rounded=0;orthogonalLoop=1;jettySize=auto;html=1;" edge="1" parent="1" source="8ifyzaVZ6uN9mZMzue3X-2" target="8ifyzaVZ6uN9mZMzue3X-8">
          <mxGeometry relative="1" as="geometry" />
        </mxCell>
        <mxCell id="8ifyzaVZ6uN9mZMzue3X-2" value="管理" style="rounded=0;whiteSpace=wrap;html=1;" vertex="1" parent="1">
          <mxGeometry x="290" y="340" width="120" height="60" as="geometry" />
        </mxCell>
        <mxCell id="8ifyzaVZ6uN9mZMzue3X-13" value="" style="edgeStyle=orthogonalEdgeStyle;rounded=0;orthogonalLoop=1;jettySize=auto;html=1;" edge="1" parent="1" source="8ifyzaVZ6uN9mZMzue3X-4" target="8ifyzaVZ6uN9mZMzue3X-12">
          <mxGeometry relative="1" as="geometry" />
        </mxCell>
        <mxCell id="8ifyzaVZ6uN9mZMzue3X-4" value="生成" style="whiteSpace=wrap;html=1;rounded=0;" vertex="1" parent="1">
          <mxGeometry x="530" y="210" width="120" height="60" as="geometry" />
        </mxCell>
        <mxCell id="8ifyzaVZ6uN9mZMzue3X-6" value="回收" style="whiteSpace=wrap;html=1;rounded=0;" vertex="1" parent="1">
          <mxGeometry x="530" y="460" width="120" height="60" as="geometry" />
        </mxCell>
        <mxCell id="8ifyzaVZ6uN9mZMzue3X-11" value="" style="edgeStyle=orthogonalEdgeStyle;rounded=0;orthogonalLoop=1;jettySize=auto;html=1;" edge="1" parent="1" source="8ifyzaVZ6uN9mZMzue3X-8" target="8ifyzaVZ6uN9mZMzue3X-10">
          <mxGeometry relative="1" as="geometry" />
        </mxCell>
        <mxCell id="8ifyzaVZ6uN9mZMzue3X-8" value="释放" style="whiteSpace=wrap;html=1;rounded=0;" vertex="1" parent="1">
          <mxGeometry x="707" y="340" width="120" height="60" as="geometry" />
        </mxCell>
        <mxCell id="8ifyzaVZ6uN9mZMzue3X-10" value="放入引用池中" style="whiteSpace=wrap;html=1;rounded=0;" vertex="1" parent="1">
          <mxGeometry x="907" y="340" width="120" height="60" as="geometry" />
        </mxCell>
        <mxCell id="8ifyzaVZ6uN9mZMzue3X-15" value="" style="edgeStyle=orthogonalEdgeStyle;rounded=0;orthogonalLoop=1;jettySize=auto;html=1;" edge="1" parent="1" source="8ifyzaVZ6uN9mZMzue3X-12" target="8ifyzaVZ6uN9mZMzue3X-14">
          <mxGeometry relative="1" as="geometry" />
        </mxCell>
        <mxCell id="8ifyzaVZ6uN9mZMzue3X-17" value="" style="edgeStyle=orthogonalEdgeStyle;rounded=0;orthogonalLoop=1;jettySize=auto;html=1;" edge="1" parent="1" source="8ifyzaVZ6uN9mZMzue3X-12" target="8ifyzaVZ6uN9mZMzue3X-16">
          <mxGeometry relative="1" as="geometry" />
        </mxCell>
        <mxCell id="8ifyzaVZ6uN9mZMzue3X-12" value="池子" style="whiteSpace=wrap;html=1;rounded=0;" vertex="1" parent="1">
          <mxGeometry x="730" y="210" width="120" height="60" as="geometry" />
        </mxCell>
        <mxCell id="8ifyzaVZ6uN9mZMzue3X-14" value="取出" style="whiteSpace=wrap;html=1;rounded=0;" vertex="1" parent="1">
          <mxGeometry x="860" y="80" width="120" height="60" as="geometry" />
        </mxCell>
        <mxCell id="8ifyzaVZ6uN9mZMzue3X-16" value="生成" style="whiteSpace=wrap;html=1;rounded=0;" vertex="1" parent="1">
          <mxGeometry x="990" y="210" width="120" height="60" as="geometry" />
        </mxCell>
      </root>
    </mxGraphModel>
  </diagram>
</mxfile>
